<svg width="1000" height="1000" viewBox="0 0 1000 1000" fill="none" xmlns="http://www.w3.org/2000/svg">
<g clip-path="url(#clip0_3_21)">
<circle cx="500" cy="500" r="500" fill="url(#paint0_linear_3_21)"/>
<path d="M853.667 479.331C853.667 419.828 833.519 370.474 799.124 
331.783C802.86 323.412 806.75 312.181 808.683 298.065C813.114 
265.866 807.884 246.547 803.452 227.64C799.021 208.733 793.791 
195.441 793.791 195.441C793.791 195.441 770.036 193.02 749.915 
199.872C729.793 206.723 712.479 211.953 687.514 226.841C675.843 
233.796 664.095 241.421 654.794 247.603C615.04 236.578 571.318 
230.911 525.329 230.911C478.928 230.911 434.82 236.604 394.783 
247.706C385.456 241.498 373.63 233.822 361.882 226.816C336.916 
211.927 319.603 206.698 299.481 199.846C279.359 192.994 255.605 
195.415 255.605 195.415C255.605 195.415 250.375 208.707 245.943 
227.614C241.512 246.521 236.282 265.84 240.713 298.039C242.697 
312.516 246.716 323.953 250.555 332.376C216.804 370.834 197.017 
419.879 197.017 479.305C197.017 633.421 280.287 703.769 432.012 
722.342C414.312 741.043 402.435 764.998 398.441 791.659C388.47 
796.038 376.98 800.16 365.927 801.808C337.483 806.11 307.417 
801.808 292.937 793.23C278.458 784.653 261.273 765.333 248.391 
746.529C237.519 730.662 221.828 712.244 207.606 705.753C188.824 
697.175 170.558 693.955 160.381 695.552C150.178 697.175 145.36 
704.671 147.499 710.055C149.637 715.412 159.84 723.475 170.584 
729.374C181.327 735.273 197.971 751.372 207.632 766.93C218.402 
784.292 220.514 794.312 229.635 814.147C236.05 828.108 258.001 
845.547 273.64 854.923C287.063 862.986 313.883 867.571 342.894 
868.885C352.916 869.348 376.593 866.412 396.56 863.578V960.174C396.56 
976.634 381.488 989.153 365.875 986.268C415.986 1003.11 469.498 1011.67 
525.329 1011.67C581.134 1011.67 634.646 1003.11 684.809 986.32C669.222 
989.179 654.15 976.66 654.15 960.2V810.695C654.15 776.461 640.572 
745.525 618.776 722.47C769.392 704.387 853.667 635.714 853.667 
479.331ZM196.554 721.285C192.586 719.25 190.448 715.49 191.787 
712.836C193.127 710.183 197.455 709.694 201.423 711.729C205.391 
713.764 207.529 717.525 206.189 720.178C204.85 722.831 200.521 723.32 
196.554 721.285ZM227.78 740.733C225.693 743 221.21 742.279 217.758 
739.136C214.305 735.994 213.197 731.589 215.284 729.322C217.371 727.055 
221.854 727.777 225.306 730.919C228.759 734.062 229.867 738.467 
227.78 740.733ZM247.206 772.932C244.578 774.787 240.121 773.061 
237.261 769.068C234.401 765.076 234.221 760.31 236.849 758.456C239.477 
756.601 243.934 758.327 246.794 762.32C249.628 766.312 249.834 771.078 247.206 
772.932ZM275.108 797.171C273.331 800.056 268.281 800.185 263.849 797.481C259.418 
794.776 257.254 790.242 259.032 787.357C260.809 784.472 265.859 784.343 270.29 
787.048C274.722 789.753 276.886 794.286 275.108 797.171ZM301.491 820.896C296.003 
820.226 291.932 816.8 292.396 813.245C292.834 809.69 297.652 807.372 303.114 
808.042C308.602 808.712 312.672 812.137 312.209 815.692C311.771 819.221 306.979 
821.565 301.491 820.896ZM344.027 827.052C338.179 826.717 333.619 823.368 333.851 
819.608C334.082 815.847 339.003 813.039 344.852 813.374C350.7 813.709 355.26 817.057 
355.029 820.818C354.797 824.605 349.876 827.387 344.027 827.052ZM384.168 823.033C377.933
823.033 372.883 819.788 372.883 815.795C372.883 811.803 377.933 808.557 384.168 808.557C390.403 
808.557 395.452 811.803 395.452 815.795C395.452 819.788 390.377 823.033 384.168 823.033Z" 
fill="black"/>
</g>
<defs>
<linearGradient id="paint0_linear_3_21" x1="-6.51215e-06" y1="1000" x2="1000" y2="-6.51215e-06" gradientUnits="userSpaceOnUse">
<stop stop-color="#7900FF"/>
<stop offset="1" stop-color="#24FF01"/>
</linearGradient>
<clipPath id="clip0_3_21">
<rect width="1000" height="1000" fill="white"/>
</clipPath>
</defs>
</svg>
