<svg width="1000" height="813" viewBox="0 0 1000 813" fill="none" xmlns="http://www.w3.org/2000/svg">
<path d="M1000 96.2123C963.206 112.531 923.666 123.56 882.165 128.521C924.525 103.126 957.054 62.916 972.373 15.0056C932.733 38.5164 888.825 55.5925 842.094 64.7963C804.667 24.9191 751.348 0 692.341 0C579.034 0 487.172 91.8664 487.172 205.177C487.172 221.258 488.99 236.918 492.487 251.935C321.976 243.379 170.804 161.693 69.6148 37.5579C51.9551 67.8618 41.8377 103.108 41.8377 140.71C41.8377 211.893 78.0606 274.696 133.11 311.489C99.4769 310.425 67.8445 301.195 40.1807 285.827C40.1661 286.683 40.1661 287.543 40.1661 288.406C40.1661 387.82 110.886 470.749 204.74 489.596C187.523 494.286 169.399 496.791 150.686 496.791C137.467 496.791 124.613 495.507 112.089 493.111C138.195 574.629 213.962 633.949 303.738 635.606C233.524 690.635 145.06 723.438 48.9411 723.438C32.3823 723.438 16.0503 722.468 0 720.573C90.7934 778.789 198.636 812.754 314.496 812.754C691.861 812.754 898.219 500.106 898.219 228.969C898.219 220.073 898.021 211.224 897.626 202.426C937.708 173.497 972.494 137.359 1000 96.2123Z" fill="url(#paint0_linear_3_25)"/>
<defs>
<linearGradient id="paint0_linear_3_25" x1="1000" y1="7.33366e-05" x2="4.96089e-05" y2="813" gradientUnits="userSpaceOnUse">
<stop stop-color="#24FF01"/>
<stop offset="1" stop-color="#7900FF"/>
</linearGradient>
</defs>
</svg>
