<svg width="500" height="407" viewBox="0 0 500 407" fill="none" xmlns="http://www.w3.org/2000/svg">
<path d="M500 48.1061C481.603 56.2656 461.833 61.7802 441.082 64.2604C462.263 51.5631 478.527 31.458 486.186 7.50281C466.367 19.2582 444.413 27.7962 421.047 32.3982C402.334 12.4596 375.674 0 346.17 0C289.517 0 243.586 45.9332 243.586 102.588C243.586 110.629 244.495 118.459 246.243 125.967C160.988 121.689 85.4018 80.8463 34.8074 18.779C25.9775 33.9309 20.9188 51.5539 20.9188 70.3548C20.9188 105.947 39.0303 137.348 66.5551 155.745C49.7385 155.212 33.9222 150.598 20.0903 142.914C20.083 143.342 20.083 143.772 20.083 144.203C20.083 193.91 55.4428 235.375 102.37 244.798C93.7617 247.143 84.6995 248.396 75.3429 248.396C68.7333 248.396 62.3066 247.754 56.0445 246.556C69.0973 287.314 106.981 316.974 151.869 317.803C116.762 345.318 72.5301 361.719 24.4705 361.719C16.1912 361.719 8.02517 361.234 0 360.287C45.3967 389.394 99.3178 406.377 157.248 406.377C345.931 406.377 449.109 250.053 449.109 114.485C449.109 110.036 449.011 105.612 448.813 101.213C468.854 86.7487 486.247 68.6794 500 48.1061Z" fill="white"/>
</svg>
