<svg width="500" height="500" viewBox="0 0 500 500" fill="none" xmlns="http://www.w3.org/2000/svg">
<g clip-path="url(#clip0_3_2)">
<path d="M250 6.66675C111.925 6.66675 0 118.592 0 256.667C0 367.754 72.5125 461.804 172.75 494.367H327.25C427.487 461.804 500 367.754 500 256.667C500 118.592 388.075 6.66675 250 6.66675Z" fill="white"/>
<path d="M423.333 238.832C423.333 209.081 413.26 184.403 396.062 165.058C397.93 160.873 399.875 155.257 400.841 148.199C403.057 132.1 400.442 122.44 398.226 112.987C396.01 103.533 393.395 96.8872 393.395 96.8872C393.395 96.8872 381.518 95.6765 371.457 99.1025C361.396 102.528 352.74 105.143 340.257 112.587C334.421 116.065 328.547 119.877 323.897 122.968C304.02 117.456 282.159 114.622 259.165 114.622C235.964 114.622 213.91 117.469 193.891 123.02C189.228 119.916 183.315 116.078 177.441 112.574C164.958 105.13 156.301 102.516 146.241 99.0896C136.18 95.6637 124.302 96.8744 124.302 96.8744C124.302 96.8744 121.687 103.52 119.472 112.974C117.256 122.427 114.641 132.087 116.857 148.186C117.849 155.425 119.858 161.143 121.778 165.355C104.902 184.584 95.0087 209.106 95.0087 238.819C95.0087 315.877 136.643 351.051 212.506 360.338C203.656 369.688 197.717 381.666 195.721 394.996C190.735 397.186 184.99 399.247 179.463 400.071C165.242 402.222 150.208 400.071 142.969 395.782C135.729 391.493 127.137 381.833 120.696 372.431C115.259 364.498 107.414 355.289 100.303 352.043C90.9122 347.754 81.7789 346.144 76.6905 346.943C71.5892 347.754 69.1802 351.502 70.2494 354.194C71.3187 356.873 76.4199 360.904 81.7918 363.854C87.1636 366.803 95.4854 374.853 100.316 382.632C105.701 391.313 106.757 396.323 111.317 406.24C114.525 413.221 125.501 421.94 133.32 426.628C140.031 430.66 153.442 432.952 167.947 433.609C172.958 433.841 184.797 432.373 194.78 430.956V479.254C194.78 487.484 187.244 493.743 179.438 492.301C204.493 500.724 231.249 505 259.165 505C287.067 505 313.823 500.724 338.904 492.327C331.111 493.756 323.575 487.497 323.575 479.267V404.514C323.575 387.397 316.786 371.929 305.888 360.402C381.196 351.36 423.333 317.024 423.333 238.832ZM94.7769 359.809C92.793 358.792 91.7238 356.912 92.3937 355.585C93.0635 354.258 95.2277 354.014 97.2116 355.031C99.1954 356.049 100.265 357.929 99.5947 359.256C98.9249 360.582 96.7607 360.827 94.7769 359.809ZM110.39 369.533C109.346 370.667 107.105 370.306 105.379 368.735C103.653 367.164 103.099 364.961 104.142 363.828C105.186 362.694 107.427 363.055 109.153 364.626C110.879 366.198 111.433 368.4 110.39 369.533ZM120.103 385.633C118.789 386.56 116.56 385.697 115.13 383.701C113.701 381.705 113.61 379.322 114.924 378.395C116.238 377.467 118.467 378.33 119.897 380.326C121.314 382.323 121.417 384.706 120.103 385.633ZM134.054 397.752C133.165 399.195 130.64 399.259 128.425 397.907C126.209 396.555 125.127 394.288 126.016 392.845C126.905 391.403 129.43 391.338 131.645 392.691C133.861 394.043 134.943 396.31 134.054 397.752ZM147.245 409.615C144.502 409.28 142.466 407.567 142.698 405.789C142.917 404.012 145.326 402.853 148.057 403.188C150.801 403.522 152.836 405.235 152.604 407.013C152.385 408.777 149.989 409.949 147.245 409.615ZM168.514 412.693C165.589 412.525 163.309 410.851 163.425 408.971C163.541 407.09 166.002 405.686 168.926 405.854C171.85 406.021 174.13 407.695 174.014 409.576C173.898 411.469 171.438 412.86 168.514 412.693ZM188.584 410.683C185.466 410.683 182.942 409.061 182.942 407.064C182.942 405.068 185.466 403.445 188.584 403.445C191.701 403.445 194.226 405.068 194.226 407.064C194.226 409.061 191.688 410.683 188.584 410.683Z" fill="url(#paint0_linear_3_2)"/>
</g>
<defs>
<linearGradient id="paint0_linear_3_2" x1="1077.5" y1="-598.333" x2="-575" y2="1056.67" gradientUnits="userSpaceOnUse">
<stop stop-color="#24FF01"/>
<stop offset="1" stop-color="#8000FF"/>
<stop offset="1" stop-color="#7900FF"/>
</linearGradient>
<clipPath id="clip0_3_2">
<rect width="500" height="500" fill="white"/>
</clipPath>
</defs>
</svg>
