<svg width="1000" height="1000" viewBox="0 0 1000 1000" fill="none" xmlns="http://www.w3.org/2000/svg">
<path d="M499.999 90.0919C633.505 90.0919 649.318 90.6 702.041 93.0055C750.79 95.2304 777.265 103.376 
794.886 110.221C818.222 119.292 834.88 130.128 852.376 147.624C869.872 165.12 880.708 181.778 889.777 
205.114C896.624 222.735 904.769 249.21 906.994 297.957C909.4 350.682 909.908 366.495 909.908 500.001C909.908 
633.507 909.4 649.32 906.994 702.043C904.769 750.792 896.624 777.267 889.777 794.888C880.708 818.224 869.872 
834.882 852.376 852.378C834.88 869.874 818.222 880.71 794.886 889.779C777.265 896.626 750.79 904.772 702.041 
906.996C649.326 909.402 633.513 909.91 499.999 909.91C366.485 909.91 350.672 909.402 297.957 906.996C249.208 
904.772 222.733 896.626 205.114 889.779C181.776 880.71 165.118 869.874 147.622 852.378C130.126 834.882 119.29 
818.224 110.221 794.888C103.374 777.267 95.2285 750.792 93.0035 702.045C90.598 649.32 90.0899 633.507 90.0899 
500.001C90.0899 366.495 90.598 350.682 93.0035 297.959C95.2285 249.21 103.374 222.735 110.221 205.114C119.29 
181.778 130.126 165.12 147.622 147.624C165.118 130.128 181.776 119.292 205.114 110.221C222.733 103.376 249.208 
95.2304 297.955 93.0055C350.68 90.6 366.493 90.0919 499.999 90.0919ZM499.999 0C364.206 0 347.181 0.575578 293.851 
3.00889C240.629 5.43822 204.285 13.8893 172.479 26.2503C139.6 39.0282 111.716 56.1248 83.9193 83.9213C56.1229 
111.718 39.0262 139.602 26.2484 172.481C13.8873 204.287 5.43624 240.631 3.0069 293.853C0.573594 347.181 0 364.208 
0 500.001C0 635.794 0.573594 652.821 3.0069 706.149C5.43624 759.371 13.8873 795.715 26.2484 827.521C39.0262 
860.398 56.1229 888.284 83.9193 916.081C111.716 943.877 139.6 960.974 172.479 973.752C204.285 986.113 240.629 
994.564 293.851 996.993C347.181 999.426 364.206 1000 499.999 1000C635.792 1000 652.819 999.426 706.147 
996.993C759.368 994.564 795.713 986.113 827.519 973.752C860.398 960.974 888.282 943.877 916.079 916.081C943.875 
888.284 960.972 860.4 973.75 827.521C986.111 795.715 994.562 759.371 996.991 706.149C999.424 652.821 1000 635.794 
1000 500.001C1000 364.208 999.424 347.181 996.991 293.853C994.562 240.631 986.111 204.287 973.75 172.481C960.972 
139.602 943.875 111.718 916.079 83.9213C888.282 56.1248 860.398 39.0282 827.519 26.2503C795.713 13.8893 759.368 
5.43822 706.147 3.00889C652.819 0.575578 635.792 0 499.999 0ZM499.999 243.243C358.196 243.243 243.241 358.198 
243.241 500.001C243.241 641.804 358.196 756.759 499.999 756.759C641.802 756.759 756.757 641.804 756.757 
500.001C756.757 358.198 641.802 243.243 499.999 243.243ZM499.999 666.669C407.952 666.669 333.331 592.048 
333.331 500.001C333.331 407.954 407.952 333.333 499.999 333.333C592.046 333.333 666.667 407.954 666.667 
500.001C666.667 592.048 592.046 666.669 499.999 666.669ZM826.9 233.099C826.9 266.237 800.038 293.1 766.901 
293.1C733.763 293.1 706.9 266.237 706.9 233.099C706.9 199.962 733.763 173.1 766.901 173.1C800.038 173.1 
826.9 199.962 826.9 233.099Z" fill="url(#paint0_linear_3_24)"/>
<defs>
<linearGradient id="paint0_linear_3_24" x1="1029" y1="-7.97537e-05" x2="3.06666e-05" y2="1000" gradientUnits="userSpaceOnUse">
<stop stop-color="#24FF01"/>
<stop offset="0.0001" stop-color="#26FF00"/>
<stop offset="1" stop-color="#7900FF"/>
</linearGradient>
</defs>
</svg>
