<svg width="500" height="500" viewBox="0 0 500 500" fill="none" xmlns="http://www.w3.org/2000/svg">
<path d="M250 45.046C316.753 45.046 324.659 45.3 351.02 46.5028C375.395 47.6152 388.633 51.6879 397.443 55.1106C409.111 59.6458 417.44 65.0642 426.188 73.812C434.936 82.5598 440.354 90.8888 444.888 102.557C448.312 111.367 452.385 124.605 453.497 148.979C454.7 175.341 454.954 183.247 454.954 250.001C454.954 316.754 454.7 324.66 453.497 351.021C452.385 375.396 448.312 388.633 444.888 397.444C440.354 409.112 434.936 417.441 426.188 426.189C417.44 434.937 409.111 440.355 397.443 444.889C388.633 448.313 375.395 452.386 351.02 453.498C324.663 454.701 316.757 454.955 250 454.955C183.242 454.955 175.336 454.701 148.979 453.498C124.604 452.386 111.366 448.313 102.557 444.889C90.8878 440.355 82.5588 434.937 73.811 426.189C65.0632 417.441 59.6448 409.112 55.1106 397.444C51.6869 388.633 47.6142 375.396 46.5018 351.022C45.299 324.66 45.045 316.754 45.045 250.001C45.045 183.247 45.299 175.341 46.5018 148.98C47.6142 124.605 51.6869 111.367 55.1106 102.557C59.6448 90.8888 65.0632 82.5598 73.811 73.812C82.5588 65.0642 90.8878 59.6458 102.557 55.1106C111.366 51.6879 124.604 47.6152 148.978 46.5028C175.34 45.3 183.246 45.046 250 45.046ZM250 0C182.103 0 173.59 0.287789 146.925 1.50444C120.315 2.71911 102.142 6.94465 86.2395 13.1252C69.7998 19.5141 55.8579 28.0624 41.9597 41.9607C28.0614 55.8589 19.5131 69.8008 13.1242 86.2405C6.94366 102.143 2.71812 120.316 1.50345 146.926C0.286797 173.59 0 182.104 0 250.001C0 317.897 0.286797 326.41 1.50345 353.075C2.71812 379.685 6.94366 397.858 13.1242 413.76C19.5131 430.199 28.0614 444.142 41.9597 458.04C55.8579 471.939 69.7998 480.487 86.2395 486.876C102.142 493.056 120.315 497.282 146.925 498.497C173.59 499.713 182.103 500 250 500C317.896 500 326.41 499.713 353.074 498.497C379.684 497.282 397.857 493.056 413.76 486.876C430.199 480.487 444.141 471.939 458.039 458.04C471.938 444.142 480.486 430.2 486.875 413.76C493.055 397.858 497.281 379.685 498.496 353.075C499.712 326.41 500 317.897 500 250.001C500 182.104 499.712 173.59 498.496 146.926C497.281 120.316 493.055 102.143 486.875 86.2405C480.486 69.8008 471.938 55.8589 458.039 41.9607C444.141 28.0624 430.199 19.5141 413.76 13.1252C397.857 6.94465 379.684 2.71911 353.074 1.50444C326.41 0.287789 317.896 0 250 0ZM250 121.622C179.098 121.622 121.621 179.099 121.621 250.001C121.621 320.902 179.098 378.379 250 378.379C320.901 378.379 378.378 320.902 378.378 250.001C378.378 179.099 320.901 121.622 250 121.622ZM250 333.334C203.976 333.334 166.666 296.024 166.666 250.001C166.666 203.977 203.976 166.667 250 166.667C296.023 166.667 333.333 203.977 333.333 250.001C333.333 296.024 296.023 333.334 250 333.334ZM413.45 116.55C413.45 133.118 400.019 146.55 383.45 146.55C366.882 146.55 353.45 133.118 353.45 116.55C353.45 99.9809 366.882 86.5501 383.45 86.5501C400.019 86.5501 413.45 99.9809 413.45 116.55Z" fill="white"/>
</svg>
